<mxfile host="Electron" modified="2024-04-11T12:52:20.885Z" agent="Mozilla/5.0 (Windows NT 10.0; Win64; x64) AppleWebKit/537.36 (KHTML, like Gecko) draw.io/23.1.5 Chrome/120.0.6099.109 Electron/28.1.0 Safari/537.36" etag="0dD-uzEKcFdHIkzifvws" version="23.1.5" type="device">
  <diagram name="Page-1" id="SeIPLvQMVfwZiT1A4dod">
    <mxGraphModel dx="1034" dy="511" grid="1" gridSize="10" guides="1" tooltips="1" connect="1" arrows="1" fold="1" page="1" pageScale="1" pageWidth="850" pageHeight="1100" math="0" shadow="0">
      <root>
        <mxCell id="0" />
        <mxCell id="1" parent="0" />
        <mxCell id="BBUwOXistNR0Xfh6Al25-1" value="USER" style="shape=umlLifeline;perimeter=lifelinePerimeter;whiteSpace=wrap;html=1;container=1;dropTarget=0;collapsible=0;recursiveResize=0;outlineConnect=0;portConstraint=eastwest;newEdgeStyle={&quot;curved&quot;:0,&quot;rounded&quot;:0};" parent="1" vertex="1">
          <mxGeometry x="100" y="40" width="100" height="980" as="geometry" />
        </mxCell>
        <mxCell id="BBUwOXistNR0Xfh6Al25-34" value="" style="html=1;points=[[0,0,0,0,5],[0,1,0,0,-5],[1,0,0,0,5],[1,1,0,0,-5]];perimeter=orthogonalPerimeter;outlineConnect=0;targetShapes=umlLifeline;portConstraint=eastwest;newEdgeStyle={&quot;curved&quot;:0,&quot;rounded&quot;:0};" parent="BBUwOXistNR0Xfh6Al25-1" vertex="1">
          <mxGeometry x="45" y="436" width="10" height="130" as="geometry" />
        </mxCell>
        <mxCell id="BBUwOXistNR0Xfh6Al25-2" value="ATM" style="shape=umlLifeline;perimeter=lifelinePerimeter;whiteSpace=wrap;html=1;container=1;dropTarget=0;collapsible=0;recursiveResize=0;outlineConnect=0;portConstraint=eastwest;newEdgeStyle={&quot;curved&quot;:0,&quot;rounded&quot;:0};" parent="1" vertex="1">
          <mxGeometry x="380" y="40" width="100" height="1000" as="geometry" />
        </mxCell>
        <mxCell id="BBUwOXistNR0Xfh6Al25-35" value="" style="html=1;points=[[0,0,0,0,5],[0,1,0,0,-5],[1,0,0,0,5],[1,1,0,0,-5]];perimeter=orthogonalPerimeter;outlineConnect=0;targetShapes=umlLifeline;portConstraint=eastwest;newEdgeStyle={&quot;curved&quot;:0,&quot;rounded&quot;:0};" parent="BBUwOXistNR0Xfh6Al25-2" vertex="1">
          <mxGeometry x="45" y="436" width="10" height="130" as="geometry" />
        </mxCell>
        <mxCell id="BBUwOXistNR0Xfh6Al25-3" value="Database" style="shape=umlLifeline;perimeter=lifelinePerimeter;whiteSpace=wrap;html=1;container=1;dropTarget=0;collapsible=0;recursiveResize=0;outlineConnect=0;portConstraint=eastwest;newEdgeStyle={&quot;curved&quot;:0,&quot;rounded&quot;:0};" parent="1" vertex="1">
          <mxGeometry x="661" y="60" width="100" height="969" as="geometry" />
        </mxCell>
        <mxCell id="BBUwOXistNR0Xfh6Al25-10" value="" style="html=1;points=[[0,0,0,0,5],[0,1,0,0,-5],[1,0,0,0,5],[1,1,0,0,-5]];perimeter=orthogonalPerimeter;outlineConnect=0;targetShapes=umlLifeline;portConstraint=eastwest;newEdgeStyle={&quot;curved&quot;:0,&quot;rounded&quot;:0};" parent="BBUwOXistNR0Xfh6Al25-3" vertex="1">
          <mxGeometry x="42.19" y="70" width="10" height="30" as="geometry" />
        </mxCell>
        <mxCell id="BBUwOXistNR0Xfh6Al25-20" value="" style="html=1;points=[[0,0,0,0,5],[0,1,0,0,-5],[1,0,0,0,5],[1,1,0,0,-5]];perimeter=orthogonalPerimeter;outlineConnect=0;targetShapes=umlLifeline;portConstraint=eastwest;newEdgeStyle={&quot;curved&quot;:0,&quot;rounded&quot;:0};" parent="BBUwOXistNR0Xfh6Al25-3" vertex="1">
          <mxGeometry x="47" y="333" width="10" height="40" as="geometry" />
        </mxCell>
        <mxCell id="BBUwOXistNR0Xfh6Al25-4" value="" style="endArrow=open;endFill=1;endSize=12;html=1;rounded=0;" parent="1" target="BBUwOXistNR0Xfh6Al25-2" edge="1">
          <mxGeometry width="160" relative="1" as="geometry">
            <mxPoint x="150" y="110" as="sourcePoint" />
            <mxPoint x="310" y="110" as="targetPoint" />
          </mxGeometry>
        </mxCell>
        <mxCell id="BBUwOXistNR0Xfh6Al25-5" value="Insert Card" style="edgeLabel;html=1;align=center;verticalAlign=middle;resizable=0;points=[];" parent="BBUwOXistNR0Xfh6Al25-4" vertex="1" connectable="0">
          <mxGeometry x="0.1592" relative="1" as="geometry">
            <mxPoint y="-12" as="offset" />
          </mxGeometry>
        </mxCell>
        <mxCell id="BBUwOXistNR0Xfh6Al25-6" value="" style="endArrow=open;endFill=1;endSize=12;html=1;rounded=0;" parent="1" edge="1">
          <mxGeometry width="160" relative="1" as="geometry">
            <mxPoint x="431.19" y="131" as="sourcePoint" />
            <mxPoint x="700.69" y="131" as="targetPoint" />
          </mxGeometry>
        </mxCell>
        <mxCell id="BBUwOXistNR0Xfh6Al25-7" value="Verify card" style="edgeLabel;html=1;align=center;verticalAlign=middle;resizable=0;points=[];" parent="BBUwOXistNR0Xfh6Al25-6" vertex="1" connectable="0">
          <mxGeometry x="0.009" y="2" relative="1" as="geometry">
            <mxPoint y="-11" as="offset" />
          </mxGeometry>
        </mxCell>
        <mxCell id="BBUwOXistNR0Xfh6Al25-13" value="" style="endArrow=open;endFill=1;endSize=12;html=1;rounded=0;" parent="1" edge="1">
          <mxGeometry width="160" relative="1" as="geometry">
            <mxPoint x="149.81034482758616" y="354" as="sourcePoint" />
            <mxPoint x="429.5" y="354" as="targetPoint" />
            <Array as="points">
              <mxPoint x="320" y="354" />
            </Array>
          </mxGeometry>
        </mxCell>
        <mxCell id="BBUwOXistNR0Xfh6Al25-14" value="Pin enterered by user" style="edgeLabel;html=1;align=center;verticalAlign=middle;resizable=0;points=[];" parent="BBUwOXistNR0Xfh6Al25-13" vertex="1" connectable="0">
          <mxGeometry x="-0.0002" y="-1" relative="1" as="geometry">
            <mxPoint y="-10" as="offset" />
          </mxGeometry>
        </mxCell>
        <mxCell id="BBUwOXistNR0Xfh6Al25-15" value="" style="endArrow=open;endFill=1;endSize=12;html=1;rounded=0;entryX=0;entryY=0;entryDx=0;entryDy=5;entryPerimeter=0;" parent="1" target="BBUwOXistNR0Xfh6Al25-20" edge="1">
          <mxGeometry width="160" relative="1" as="geometry">
            <mxPoint x="432" y="398" as="sourcePoint" />
            <mxPoint x="701.5" y="398" as="targetPoint" />
          </mxGeometry>
        </mxCell>
        <mxCell id="BBUwOXistNR0Xfh6Al25-16" value="Verify Pin" style="edgeLabel;html=1;align=center;verticalAlign=middle;resizable=0;points=[];" parent="BBUwOXistNR0Xfh6Al25-15" vertex="1" connectable="0">
          <mxGeometry x="0.0678" y="-2" relative="1" as="geometry">
            <mxPoint y="-16" as="offset" />
          </mxGeometry>
        </mxCell>
        <mxCell id="BBUwOXistNR0Xfh6Al25-22" value="" style="endArrow=open;endFill=1;endSize=12;html=1;rounded=0;" parent="1" target="BBUwOXistNR0Xfh6Al25-35" edge="1">
          <mxGeometry width="160" relative="1" as="geometry">
            <mxPoint x="157" y="515" as="sourcePoint" />
            <mxPoint x="417" y="515" as="targetPoint" />
          </mxGeometry>
        </mxCell>
        <mxCell id="BBUwOXistNR0Xfh6Al25-23" value="Withdrawal" style="edgeLabel;html=1;align=center;verticalAlign=middle;resizable=0;points=[];" parent="BBUwOXistNR0Xfh6Al25-22" vertex="1" connectable="0">
          <mxGeometry x="0.0058" y="4" relative="1" as="geometry">
            <mxPoint y="-5" as="offset" />
          </mxGeometry>
        </mxCell>
        <mxCell id="BBUwOXistNR0Xfh6Al25-32" value="" style="endArrow=open;endFill=1;endSize=12;html=1;rounded=0;" parent="1" edge="1">
          <mxGeometry width="160" relative="1" as="geometry">
            <mxPoint x="156" y="599" as="sourcePoint" />
            <mxPoint x="425.5000000000002" y="599" as="targetPoint" />
          </mxGeometry>
        </mxCell>
        <mxCell id="BBUwOXistNR0Xfh6Al25-33" value="Amount Entered by User (10000)" style="edgeLabel;html=1;align=center;verticalAlign=middle;resizable=0;points=[];" parent="BBUwOXistNR0Xfh6Al25-32" vertex="1" connectable="0">
          <mxGeometry x="0.0237" y="-1" relative="1" as="geometry">
            <mxPoint y="-12" as="offset" />
          </mxGeometry>
        </mxCell>
        <mxCell id="BBUwOXistNR0Xfh6Al25-36" value="" style="endArrow=open;endFill=1;endSize=12;html=1;rounded=0;" parent="1" edge="1">
          <mxGeometry width="160" relative="1" as="geometry">
            <mxPoint x="430" y="638" as="sourcePoint" />
            <mxPoint x="710.5" y="638.0000000000001" as="targetPoint" />
          </mxGeometry>
        </mxCell>
        <mxCell id="BBUwOXistNR0Xfh6Al25-37" value="Check Funds" style="edgeLabel;html=1;align=center;verticalAlign=middle;resizable=0;points=[];" parent="BBUwOXistNR0Xfh6Al25-36" vertex="1" connectable="0">
          <mxGeometry x="0.1915" y="2" relative="1" as="geometry">
            <mxPoint y="-8" as="offset" />
          </mxGeometry>
        </mxCell>
        <mxCell id="BBUwOXistNR0Xfh6Al25-38" value="alt" style="shape=umlFrame;whiteSpace=wrap;html=1;pointerEvents=0;" parent="1" vertex="1">
          <mxGeometry x="130" y="648" width="590" height="340" as="geometry" />
        </mxCell>
        <mxCell id="BBUwOXistNR0Xfh6Al25-39" value="Transaction Approved" style="text;html=1;align=center;verticalAlign=middle;resizable=0;points=[];autosize=1;strokeColor=none;fillColor=none;" parent="1" vertex="1">
          <mxGeometry x="330" y="647" width="140" height="30" as="geometry" />
        </mxCell>
        <mxCell id="BBUwOXistNR0Xfh6Al25-40" value="Sufficient Fund" style="endArrow=open;endSize=12;dashed=1;html=1;rounded=0;" parent="1" edge="1">
          <mxGeometry x="0.0358" y="-15" width="160" relative="1" as="geometry">
            <mxPoint x="700" y="704" as="sourcePoint" />
            <mxPoint x="429.66666666666674" y="704" as="targetPoint" />
            <mxPoint as="offset" />
          </mxGeometry>
        </mxCell>
        <mxCell id="BBUwOXistNR0Xfh6Al25-43" value="Options Menu" style="endArrow=open;endSize=12;dashed=1;html=1;rounded=0;" parent="1" edge="1">
          <mxGeometry x="0.0358" y="-15" width="160" relative="1" as="geometry">
            <mxPoint x="423.33" y="484" as="sourcePoint" />
            <mxPoint x="152.99666666666673" y="484" as="targetPoint" />
            <mxPoint as="offset" />
          </mxGeometry>
        </mxCell>
        <mxCell id="BBUwOXistNR0Xfh6Al25-44" value="Enter Amount" style="endArrow=open;endSize=12;dashed=1;html=1;rounded=0;" parent="1" edge="1">
          <mxGeometry x="0.0358" y="-15" width="160" relative="1" as="geometry">
            <mxPoint x="425.33" y="566" as="sourcePoint" />
            <mxPoint x="154.99666666666673" y="566" as="targetPoint" />
            <mxPoint as="offset" />
          </mxGeometry>
        </mxCell>
        <mxCell id="BBUwOXistNR0Xfh6Al25-45" value="Pin is ok/correct" style="endArrow=open;endSize=12;dashed=1;html=1;rounded=0;exitX=0;exitY=1;exitDx=0;exitDy=-5;exitPerimeter=0;" parent="1" source="BBUwOXistNR0Xfh6Al25-20" edge="1">
          <mxGeometry x="0.0358" y="-15" width="160" relative="1" as="geometry">
            <mxPoint x="697.3299999999999" y="428" as="sourcePoint" />
            <mxPoint x="426.9966666666667" y="428" as="targetPoint" />
            <mxPoint as="offset" />
          </mxGeometry>
        </mxCell>
        <mxCell id="BBUwOXistNR0Xfh6Al25-47" value="Dispense Cash/Collect Your Cash" style="endArrow=open;endSize=12;dashed=1;html=1;rounded=0;" parent="1" edge="1">
          <mxGeometry x="0.0358" y="-15" width="160" relative="1" as="geometry">
            <mxPoint x="423" y="734" as="sourcePoint" />
            <mxPoint x="152.99666666666673" y="734" as="targetPoint" />
            <mxPoint as="offset" />
          </mxGeometry>
        </mxCell>
        <mxCell id="BBUwOXistNR0Xfh6Al25-51" value="Take your card" style="endArrow=open;endSize=12;dashed=1;html=1;rounded=0;exitX=0.5;exitY=0.732;exitDx=0;exitDy=0;exitPerimeter=0;" parent="1" edge="1">
          <mxGeometry x="0.0358" y="-15" width="160" relative="1" as="geometry">
            <mxPoint x="430" y="795" as="sourcePoint" />
            <mxPoint x="149.99666666666673" y="795" as="targetPoint" />
            <mxPoint as="offset" />
          </mxGeometry>
        </mxCell>
        <mxCell id="BBUwOXistNR0Xfh6Al25-52" value="" style="html=1;points=[[0,0,0,0,5],[0,1,0,0,-5],[1,0,0,0,5],[1,1,0,0,-5]];perimeter=orthogonalPerimeter;outlineConnect=0;targetShapes=umlLifeline;portConstraint=eastwest;newEdgeStyle={&quot;curved&quot;:0,&quot;rounded&quot;:0};" parent="1" vertex="1">
          <mxGeometry x="425" y="729" width="10" height="71" as="geometry" />
        </mxCell>
        <mxCell id="BBUwOXistNR0Xfh6Al25-53" value="" style="html=1;points=[[0,0,0,0,5],[0,1,0,0,-5],[1,0,0,0,5],[1,1,0,0,-5]];perimeter=orthogonalPerimeter;outlineConnect=0;targetShapes=umlLifeline;portConstraint=eastwest;newEdgeStyle={&quot;curved&quot;:0,&quot;rounded&quot;:0};" parent="1" vertex="1">
          <mxGeometry x="144" y="729" width="10" height="71" as="geometry" />
        </mxCell>
        <mxCell id="BBUwOXistNR0Xfh6Al25-55" value="" style="endArrow=none;dashed=1;html=1;rounded=0;exitX=0;exitY=0.561;exitDx=0;exitDy=0;exitPerimeter=0;entryX=0.997;entryY=0.558;entryDx=0;entryDy=0;entryPerimeter=0;" parent="1" source="BBUwOXistNR0Xfh6Al25-38" target="BBUwOXistNR0Xfh6Al25-38" edge="1">
          <mxGeometry width="50" height="50" relative="1" as="geometry">
            <mxPoint x="143" y="745.1099999999999" as="sourcePoint" />
            <mxPoint x="712.5" y="745.1099999999999" as="targetPoint" />
          </mxGeometry>
        </mxCell>
        <mxCell id="BBUwOXistNR0Xfh6Al25-57" value="Transaction Rejected" style="text;html=1;align=center;verticalAlign=middle;resizable=0;points=[];autosize=1;strokeColor=none;fillColor=none;" parent="1" vertex="1">
          <mxGeometry x="341" y="837" width="140" height="30" as="geometry" />
        </mxCell>
        <mxCell id="BBUwOXistNR0Xfh6Al25-58" value="Insufficient Fund" style="endArrow=open;endSize=12;dashed=1;html=1;rounded=0;" parent="1" source="BBUwOXistNR0Xfh6Al25-3" edge="1">
          <mxGeometry x="0.0358" y="-15" width="160" relative="1" as="geometry">
            <mxPoint x="697.33" y="889" as="sourcePoint" />
            <mxPoint x="426.9966666666667" y="889" as="targetPoint" />
            <mxPoint as="offset" />
          </mxGeometry>
        </mxCell>
        <mxCell id="BBUwOXistNR0Xfh6Al25-59" value="Rejection Reason (Insufficient Fund)" style="endArrow=open;endSize=12;dashed=1;html=1;rounded=0;exitX=0.5;exitY=0.732;exitDx=0;exitDy=0;exitPerimeter=0;" parent="1" edge="1">
          <mxGeometry x="0.0358" y="-15" width="160" relative="1" as="geometry">
            <mxPoint x="430" y="919" as="sourcePoint" />
            <mxPoint x="149.99666666666673" y="919" as="targetPoint" />
            <mxPoint as="offset" />
          </mxGeometry>
        </mxCell>
        <mxCell id="BBUwOXistNR0Xfh6Al25-60" value="Take your card" style="endArrow=open;endSize=12;dashed=1;html=1;rounded=0;exitX=0.5;exitY=0.732;exitDx=0;exitDy=0;exitPerimeter=0;" parent="1" edge="1">
          <mxGeometry x="0.0358" y="-15" width="160" relative="1" as="geometry">
            <mxPoint x="430" y="954" as="sourcePoint" />
            <mxPoint x="149.99666666666673" y="954" as="targetPoint" />
            <mxPoint as="offset" />
          </mxGeometry>
        </mxCell>
        <mxCell id="BBUwOXistNR0Xfh6Al25-63" value="" style="endArrow=open;endFill=1;endSize=12;html=1;rounded=0;" parent="1" edge="1">
          <mxGeometry width="160" relative="1" as="geometry">
            <mxPoint x="150" y="216" as="sourcePoint" />
            <mxPoint x="430" y="216" as="targetPoint" />
            <Array as="points">
              <mxPoint x="320" y="216" />
            </Array>
          </mxGeometry>
        </mxCell>
        <mxCell id="BBUwOXistNR0Xfh6Al25-64" value="English" style="edgeLabel;html=1;align=center;verticalAlign=middle;resizable=0;points=[];" parent="BBUwOXistNR0Xfh6Al25-63" vertex="1" connectable="0">
          <mxGeometry x="-0.0002" y="-1" relative="1" as="geometry">
            <mxPoint y="-9" as="offset" />
          </mxGeometry>
        </mxCell>
        <mxCell id="BBUwOXistNR0Xfh6Al25-67" value="" style="endArrow=open;endFill=1;endSize=12;html=1;rounded=0;" parent="1" edge="1">
          <mxGeometry width="160" relative="1" as="geometry">
            <mxPoint x="150" y="283" as="sourcePoint" />
            <mxPoint x="430" y="283" as="targetPoint" />
            <Array as="points">
              <mxPoint x="320" y="283" />
            </Array>
          </mxGeometry>
        </mxCell>
        <mxCell id="BBUwOXistNR0Xfh6Al25-68" value="Saving Account" style="edgeLabel;html=1;align=center;verticalAlign=middle;resizable=0;points=[];" parent="BBUwOXistNR0Xfh6Al25-67" vertex="1" connectable="0">
          <mxGeometry x="-0.0002" y="-1" relative="1" as="geometry">
            <mxPoint x="-4" y="-12" as="offset" />
          </mxGeometry>
        </mxCell>
        <mxCell id="BBUwOXistNR0Xfh6Al25-70" value="Select Language" style="endArrow=open;endSize=12;dashed=1;html=1;rounded=0;exitX=0;exitY=1;exitDx=0;exitDy=-5;exitPerimeter=0;" parent="1" edge="1">
          <mxGeometry x="0.0358" y="-15" width="160" relative="1" as="geometry">
            <mxPoint x="431" y="187" as="sourcePoint" />
            <mxPoint x="149.99666666666673" y="187" as="targetPoint" />
            <mxPoint as="offset" />
          </mxGeometry>
        </mxCell>
        <mxCell id="BBUwOXistNR0Xfh6Al25-71" value="Enter your PIN" style="endArrow=open;endSize=12;dashed=1;html=1;rounded=0;exitX=0;exitY=1;exitDx=0;exitDy=-5;exitPerimeter=0;" parent="1" edge="1">
          <mxGeometry x="0.0358" y="-15" width="160" relative="1" as="geometry">
            <mxPoint x="430" y="328" as="sourcePoint" />
            <mxPoint x="148.99666666666673" y="328" as="targetPoint" />
            <mxPoint as="offset" />
          </mxGeometry>
        </mxCell>
        <mxCell id="BBUwOXistNR0Xfh6Al25-73" value="Select Account Type" style="endArrow=open;endSize=12;dashed=1;html=1;rounded=0;exitX=0;exitY=1;exitDx=0;exitDy=-5;exitPerimeter=0;" parent="1" edge="1">
          <mxGeometry x="0.0358" y="-15" width="160" relative="1" as="geometry">
            <mxPoint x="431" y="252" as="sourcePoint" />
            <mxPoint x="149.99666666666673" y="252" as="targetPoint" />
            <mxPoint as="offset" />
          </mxGeometry>
        </mxCell>
        <mxCell id="BBUwOXistNR0Xfh6Al25-74" value="Card OK" style="endArrow=open;endSize=12;dashed=1;html=1;rounded=0;" parent="1" edge="1">
          <mxGeometry x="0.0358" y="-15" width="160" relative="1" as="geometry">
            <mxPoint x="700" y="157" as="sourcePoint" />
            <mxPoint x="426.9966666666667" y="157" as="targetPoint" />
            <mxPoint as="offset" />
          </mxGeometry>
        </mxCell>
        <mxCell id="YNGryRqFKpXSZNh0J2oH-1" value="&lt;b&gt;&lt;font style=&quot;font-size: 17px;&quot;&gt;Experiment No. 4 Sequence Diagram For ATM&lt;/font&gt;&lt;/b&gt;" style="text;html=1;align=center;verticalAlign=middle;resizable=0;points=[];autosize=1;strokeColor=none;fillColor=none;" parent="1" vertex="1">
          <mxGeometry x="237" y="1040" width="390" height="30" as="geometry" />
        </mxCell>
        <mxCell id="YNGryRqFKpXSZNh0J2oH-4" value="" style="endArrow=open;endFill=1;endSize=12;html=1;rounded=0;" parent="1" edge="1">
          <mxGeometry width="160" relative="1" as="geometry">
            <mxPoint x="155" y="764.16" as="sourcePoint" />
            <mxPoint x="424.5000000000002" y="764.16" as="targetPoint" />
          </mxGeometry>
        </mxCell>
        <mxCell id="YNGryRqFKpXSZNh0J2oH-5" value="Cash Collected Successfully" style="edgeLabel;html=1;align=center;verticalAlign=middle;resizable=0;points=[];" parent="YNGryRqFKpXSZNh0J2oH-4" vertex="1" connectable="0">
          <mxGeometry x="0.0237" y="-1" relative="1" as="geometry">
            <mxPoint y="-12" as="offset" />
          </mxGeometry>
        </mxCell>
      </root>
    </mxGraphModel>
  </diagram>
</mxfile>
